<svg xmlns="http://www.w3.org/2000/svg" version="1.1" xmlns:xlink="http://www.w3.org/1999/xlink" width="512" height="512" x="0" y="0" viewBox="0 0 64 64" style="enable-background:new 0 0 512 512" xml:space="preserve" class=""><g><g data-name="Outline"><path d="M25 56h-4a1 1 0 0 0 0 2h4a1 1 0 0 0 0-2z" fill="#b16c51" opacity="1" data-original="#000000"></path><circle cx="29" cy="57" r="1" fill="#b16c51" opacity="1" data-original="#000000"></circle><path d="M29.82 37.61a3 3 0 0 0 4.24 0l4-4a3 3 0 0 0-3.11-5V20.5a3 3 0 0 0-6 0v8.17a3 3 0 0 0-3.13 4.94zm-2.52-6.82a1 1 0 0 1 1.41 0l.58.58a1 1 0 0 0 1.71-.7V20.5a1 1 0 0 1 2 0v10.16a1 1 0 0 0 1.7.72l.6-.59a1 1 0 0 1 1.4 1.42l-4.05 4a1 1 0 0 1-1.41 0l-3.95-4a1 1 0 0 1 .01-1.42z" fill="#b16c51" opacity="1" data-original="#000000"></path><circle cx="32" cy="6" r="1" fill="#b16c51" opacity="1" data-original="#000000"></circle><path d="M48 11V6.11A4.11 4.11 0 0 0 43.89 2H20.11A4.11 4.11 0 0 0 16 6.11v51.78A4.11 4.11 0 0 0 20.11 62h23.78A4.11 4.11 0 0 0 48 57.89V28a1 1 0 0 0 1-1v-3a1 1 0 0 0-1-1v-4a1 1 0 0 0 1-1v-6a1 1 0 0 0-1-1zm-2 46.89A2.1 2.1 0 0 1 43.89 60H20.11A2.1 2.1 0 0 1 18 57.89V6.11A2.1 2.1 0 0 1 20.11 4h23.78A2.1 2.1 0 0 1 46 6.11z" fill="#b16c51" opacity="1" data-original="#000000"></path><path d="M41 36a3 3 0 0 0-3 3v1H26v-1a3 3 0 0 0-6 0v4a3 3 0 0 0 3 3h18a3 3 0 0 0 3-3v-4a3 3 0 0 0-3-3zm1 7a1 1 0 0 1-1 1H23a1 1 0 0 1-1-1v-4a1 1 0 0 1 2 0v2a1 1 0 0 0 1 1h14a1 1 0 0 0 1-1v-2a1 1 0 0 1 2 0z" fill="#b16c51" opacity="1" data-original="#000000"></path></g></g></svg>