<svg xmlns="http://www.w3.org/2000/svg" version="1.1" xmlns:xlink="http://www.w3.org/1999/xlink" width="512" height="512" x="0" y="0" viewBox="0 0 32 32" style="enable-background:new 0 0 512 512" xml:space="preserve" class=""><g><path d="m29.71 28.29-6.55-6.55c1.77-2.09 2.85-4.79 2.85-7.74 0-6.62-5.38-12-12-12S2 7.38 2 14s5.38 12 12 12c2.95 0 5.65-1.07 7.74-2.85l6.55 6.55c.92.92 2.36-.47 1.41-1.41zM4 14C4 8.49 8.49 4 14 4s10 4.49 10 10-4.49 10-10 10S4 19.51 4 14z" fill="#B16C51" opacity="1" data-original="#000000"></path><path d="m14.26 6.92 4.08 2.45c.32.19.32.66 0 .86l-4.08 2.45c-.16.1-.36.1-.51 0l-4.08-2.45a.505.505 0 0 1 0-.86l4.08-2.45c.16-.1.36-.1.51 0zM8 17.35v-4.9a.5.5 0 0 1 .76-.43l4 2.4c.15.09.24.25.24.43v4.9a.5.5 0 0 1-.76.43l-4-2.4a.495.495 0 0 1-.24-.43zm7 2.4v-4.9c0-.18.09-.34.24-.43l4-2.4c.33-.2.76.04.76.43v4.9c0 .18-.09.34-.24.43l-4 2.4c-.33.2-.76-.04-.76-.43z" fill="#B16C51" opacity="1" data-original="#000000"></path></g></svg>