<svg xmlns="http://www.w3.org/2000/svg" version="1.1" xmlns:xlink="http://www.w3.org/1999/xlink" width="512" height="512" x="0" y="0" viewBox="0 0 300 300" style="enable-background:new 0 0 512 512" xml:space="preserve" class=""><g><path d="M213.516 61.312c.781.781 1.805 1.172 2.828 1.172s2.047-.391 2.828-1.172L222 58.484l2.828 2.828c.781.781 1.805 1.172 2.828 1.172s2.047-.391 2.828-1.172a4 4 0 0 0 0-5.656l-2.828-2.828L230.484 50a4 4 0 1 0-5.656-5.656L222 47.172l-2.828-2.828A4 4 0 1 0 213.516 50l2.828 2.828-2.828 2.828a3.997 3.997 0 0 0 0 5.656zM265.393 134.707l-20-32a4.006 4.006 0 0 0-3.393-1.879H58c-1.379 0-2.66.711-3.393 1.879l-20 32a3.999 3.999 0 0 0-.105 4.059A3.997 3.997 0 0 0 38 140.828h16v112c0 2.211 1.791 4 4 4h184c2.209 0 4-1.789 4-4v-112h16a4.004 4.004 0 0 0 3.393-6.121zM60.217 108.828h118.566l-15 24H45.217zm1.783 32h104c1.379 0 2.66-.711 3.393-1.879L182 118.777v130.051H62zm176 108h-48V118.777l12.607 20.172a4.006 4.006 0 0 0 3.393 1.879h32zm-29.783-116-15-24h46.566l15 24z" fill="#B16C51" opacity="1" data-original="#000000"></path><path d="M94 148.828H78c-2.209 0-4 1.789-4 4v16c0 2.211 1.791 4 4 4h16c2.209 0 4-1.789 4-4v-16c0-2.211-1.791-4-4-4zm-4 16h-8v-8h8zM166 148.828h-16c-2.209 0-4 1.789-4 4v16c0 2.211 1.791 4 4 4h16c2.209 0 4-1.789 4-4v-16c0-2.211-1.791-4-4-4zm-4 16h-8v-8h8zM94 216.828H78c-2.209 0-4 1.789-4 4v16c0 2.211 1.791 4 4 4h16c2.209 0 4-1.789 4-4v-16c0-2.211-1.791-4-4-4zm-4 16h-8v-8h8zM166 216.828h-16c-2.209 0-4 1.789-4 4v16c0 2.211 1.791 4 4 4h16c2.209 0 4-1.789 4-4v-16c0-2.211-1.791-4-4-4zm-4 16h-8v-8h8zM114 156.828h-8c-2.209 0-4 1.789-4 4s1.791 4 4 4h8c2.209 0 4-1.789 4-4s-1.791-4-4-4zM138 156.828h-8c-2.209 0-4 1.789-4 4s1.791 4 4 4h8c2.209 0 4-1.789 4-4s-1.791-4-4-4zM114 224.828h-8c-2.209 0-4 1.789-4 4s1.791 4 4 4h8c2.209 0 4-1.789 4-4s-1.791-4-4-4zM138 224.828h-8c-2.209 0-4 1.789-4 4s1.791 4 4 4h8c2.209 0 4-1.789 4-4s-1.791-4-4-4zM158 192.828c2.209 0 4-1.789 4-4v-8c0-2.211-1.791-4-4-4s-4 1.789-4 4v8c0 2.211 1.791 4 4 4zM154 208.828c0 2.211 1.791 4 4 4s4-1.789 4-4v-8c0-2.211-1.791-4-4-4s-4 1.789-4 4zM86 192.828c2.209 0 4-1.789 4-4v-8c0-2.211-1.791-4-4-4s-4 1.789-4 4v8c0 2.211 1.791 4 4 4zM82 208.828c0 2.211 1.791 4 4 4s4-1.789 4-4v-8c0-2.211-1.791-4-4-4s-4 1.789-4 4zM122 76.828c6.617 0 12-5.383 12-12s-5.383-12-12-12-12 5.383-12 12 5.383 12 12 12zm0-16c2.205 0 4 1.793 4 4s-1.795 4-4 4-4-1.793-4-4 1.795-4 4-4zM180 75.357a4.53 4.53 0 1 0 0-9.06 4.53 4.53 0 0 0 0 9.06z" fill="#B16C51" opacity="1" data-original="#000000"></path></g></svg>