<svg width="53" height="57" viewBox="0 0 53 57" fill="none" xmlns="http://www.w3.org/2000/svg">
<path d="M23.7898 50.1574H22.0254V20.3185H16.2032C13.6688 20.3185 11.608 22.3722 11.608 24.8977H9.84358C9.84358 21.4038 12.6971 18.5603 16.2032 18.5603H22.0254V13.5112H11.7006C3.34606 24.1838 -2.25383 39.3084 1.16169 47.8883C5.37808 58.4829 16.9464 56.0968 28.8544 51.1668V35.0697C25.6221 39.3453 23.7898 44.6118 23.7898 50.1574ZM19.9337 39.8438L19.8184 40.289L19.386 40.447C19.3222 40.4696 18.4534 40.7814 17.212 40.7814C16.2217 40.7814 14.9967 40.5845 13.7553 39.889C11.2394 38.4795 9.52447 35.5477 8.66184 31.1696L8.43332 30.0124L9.61093 30.1253C14.0682 30.55 17.1667 31.9594 18.8219 34.3147C20.6645 36.9387 19.9666 39.7269 19.9357 39.8438H19.9337Z" fill="#E9D4D4"/>
<path d="M10.6589 32.0208C11.4598 35.1906 12.7795 37.314 14.5933 38.3399C16.0982 39.1933 17.5703 39.0661 18.3032 38.9184C18.3773 38.1798 18.3588 36.7068 17.3582 35.2973C16.1538 33.6006 13.9015 32.5009 10.6589 32.0188V32.0208Z" fill="#E9D4D4"/>
<path d="M23.7898 40.6008C24.9551 37.5501 26.6721 34.7373 28.8544 32.2979V20.3164H23.7898V40.5988V40.6008Z" fill="#E9D4D4"/>
<path d="M51.2045 14.2211C47.3216 1.33277 37.9274 -3.63421 24.0615 2.8202C20.3022 4.57023 16.5366 7.77077 13.1396 11.753H36.6468C39.07 11.753 41.0403 9.78957 41.0403 7.37481H42.8046C42.8046 10.7579 40.0418 13.5112 36.6468 13.5112H23.7918V18.5603H48.7525V20.3185H30.6228V30.5048C32.2699 28.9805 34.1186 27.6449 36.1507 26.5472L36.9906 28.0942C34.5798 29.3949 32.4407 31.0547 30.6228 32.9832V50.4199C32.1052 49.7798 33.5895 49.1069 35.0574 48.4217C48.9233 41.9673 56.6932 32.4395 51.2065 14.2211H51.2045Z" fill="#E9D4D4"/>
<path d="M28.8564 56.9647H30.6208V50.418C30.032 50.6724 29.4432 50.9227 28.8564 51.1648V56.9627V56.9647Z" fill="#E9D4D4"/>
<path d="M3.89575 11.7529V13.5112H11.7027C12.1741 12.91 12.6538 12.3233 13.1397 11.7529H3.89575Z" fill="#E9D4D4"/>
</svg>
