<svg xmlns="http://www.w3.org/2000/svg" version="1.1" xmlns:xlink="http://www.w3.org/1999/xlink" width="512" height="512" x="0" y="0" viewBox="0 0 511.999 511" style="enable-background:new 0 0 512 512" xml:space="preserve"><g><path d="M424.34 337.176c-12.977 0-23.531 10.558-23.531 23.531 0 12.977 10.554 23.535 23.53 23.535 12.974 0 23.532-10.558 23.532-23.535 0-12.973-10.555-23.531-23.531-23.531zm0 32.066c-4.707 0-8.531-3.828-8.531-8.531 0-4.707 3.828-8.535 8.53-8.535s8.532 3.828 8.532 8.535c0 4.703-3.828 8.531-8.531 8.531zM119.727 337.176c-12.977 0-23.532 10.558-23.532 23.531 0 12.977 10.555 23.535 23.532 23.535 12.976 0 23.53-10.558 23.53-23.535 0-12.973-10.554-23.531-23.53-23.531zm0 32.066c-4.707 0-8.532-3.828-8.532-8.531 0-4.707 3.828-8.535 8.532-8.535 4.703 0 8.53 3.828 8.53 8.535 0 4.703-3.827 8.531-8.53 8.531zM39.563 353.21H23.53c-4.703 0-8.531-3.827-8.531-8.534V112.21c0-4.707 3.828-8.535 8.531-8.535h16.032c4.144 0 7.5-3.356 7.5-7.5a7.5 7.5 0 0 0-7.5-7.5H23.53C10.56 88.676 0 99.234 0 112.21v232.465c0 12.976 10.559 23.535 23.531 23.535h16.032a7.5 7.5 0 0 0 7.5-7.5c0-4.145-3.356-7.5-7.5-7.5zm0 0" fill="#FFFFFF" opacity="1" data-original="#000000"></path><path d="M495.969 314.36v-65.626c0-12.976-7.785-24.472-19.832-29.293l-21.325-8.53-18.863-81.747c-3.324-14.398-15.965-24.453-30.742-24.453h-86.828c-3.137-9.309-11.945-16.035-22.3-16.035h-16.032a7.5 7.5 0 0 0-7.5 7.5c0 4.144 3.355 7.5 7.5 7.5h16.031c4.707 0 8.535 3.828 8.535 8.535v241H174.801c-3.672-27.121-26.965-48.098-55.074-48.098-30.657 0-55.598 24.938-55.598 55.598 0 30.656 24.937 55.594 55.598 55.594 28.109 0 51.402-20.977 55.074-48.094h194.46c3.677 27.117 26.966 48.094 55.079 48.094 28.11 0 51.402-20.977 55.074-48.094h9.055c12.972 0 23.531-10.559 23.531-23.535v-8.016c0-10.355-6.723-19.16-16.031-22.3zm-15-33.298h-8.531c-4.708 0-8.536-3.824-8.536-8.53 0-4.704 3.828-8.532 8.535-8.532h8.532zm-42.008-72.144h-78.75c-4.707 0-8.535-3.828-8.535-8.531v-40.082c0-4.703 3.828-8.532 8.535-8.532h65.559zm-17.629-76.383.98 4.238h-62.101c-12.977 0-23.531 10.559-23.531 23.532v40.082c0 12.976 10.554 23.531 23.53 23.531h86.731l23.625 9.453a16.467 16.467 0 0 1 10.403 15.363V249h-8.531c-12.977 0-23.536 10.555-23.536 23.531s10.559 23.531 23.535 23.531h8.532v17.067H453.07a55.248 55.248 0 0 0-28.73-8.016c-28.113 0-51.402 20.977-55.078 48.094h-49.649V264H424.34a7.5 7.5 0 1 0 0-15H319.613V119.707h85.594c7.754.004 14.383 5.277 16.125 12.828zm-301.605 268.77c-22.387 0-40.598-18.211-40.598-40.598 0-22.383 18.21-40.594 40.598-40.594 22.375 0 40.582 18.196 40.593 40.57V360.735c-.011 22.375-18.218 40.57-40.593 40.57zm304.613 0c-22.387 0-40.598-18.211-40.598-40.598 0-22.383 18.211-40.594 40.598-40.594s40.597 18.211 40.597 40.594c0 22.387-18.21 40.598-40.597 40.598zm72.66-56.63c0 4.704-3.828 8.532-8.531 8.532h-9.051a55.264 55.264 0 0 0-10.07-25.078h19.12c4.704 0 8.532 3.828 8.532 8.531zm0 0" fill="#FFFFFF" opacity="1" data-original="#000000"></path><path d="M79.645 264h160.324c8.554 0 15.515-6.96 15.515-15.516V88.16c0-8.555-6.96-15.515-15.515-15.515h-38.875c11.246-5.2 22.297-11.47 29.117-18.29 12.3-12.3 12.3-32.316 0-44.617-12.3-12.297-32.313-12.297-44.613 0-10.563 10.563-19.793 31.254-25.79 47.125-5.995-15.87-15.23-36.566-25.788-47.125C128.059 3.781 120.137.5 111.71.5c-8.429 0-16.35 3.281-22.308 9.238-5.96 5.961-9.242 13.883-9.242 22.309 0 8.43 3.281 16.351 9.242 22.308 6.82 6.82 17.871 13.09 29.118 18.29H79.645c-8.555 0-15.516 6.96-15.516 15.515v160.324c0 8.555 6.96 15.516 15.516 15.516zM196.203 20.344c6.453-6.45 16.95-6.45 23.402 0 6.454 6.453 6.454 16.953 0 23.406-9.507 9.504-31.878 18.89-48.058 24.648 5.754-16.171 15.137-38.535 24.656-48.054zM95.16 32.047c0-4.418 1.723-8.574 4.848-11.7s7.281-4.847 11.703-4.847a16.44 16.44 0 0 1 11.7 4.848c9.503 9.504 18.894 31.87 24.648 48.05-16.176-5.757-38.547-15.144-48.051-24.648a16.443 16.443 0 0 1-4.848-11.703zM79.645 87.645h62.054L130.453 98.89a7.504 7.504 0 0 0 0 10.605 7.502 7.502 0 0 0 10.61 0l18.742-18.746 18.746 18.746a7.473 7.473 0 0 0 5.304 2.195 7.47 7.47 0 0 0 5.301-2.195 7.497 7.497 0 0 0 0-10.605L177.91 87.645h62.059c.285 0 .515.23.515.515v40.598h-8.53c-4.142 0-7.5 3.36-7.5 7.5a7.5 7.5 0 0 0 7.5 7.5h8.53v104.726c0 .286-.23.516-.515.516H79.645a.515.515 0 0 1-.516-.516V143.758h120.754a7.5 7.5 0 1 0 0-15H79.129V88.16c0-.285.23-.515.516-.515zm0 0" fill="#FFFFFF" opacity="1" data-original="#000000"></path></g></svg>