<svg xmlns="http://www.w3.org/2000/svg" version="1.1" xmlns:xlink="http://www.w3.org/1999/xlink" width="512" height="512" x="0" y="0" viewBox="0 0 512.007 512.007" style="enable-background:new 0 0 512 512" xml:space="preserve"><g><path d="M157.202 459.312c-40.708-19.796-74.247-51.066-96.992-90.429-17.437-30.176-27.501-63.499-29.733-97.88H55.41c8.284 0 15-6.716 15-15 0-8.284-6.716-15-15-15H30.518c.105-1.565.223-3.131.36-4.697 3.504-40.054 17.591-78.446 40.739-111.024 15.759-22.18 35.437-41.322 57.878-56.51l-3.332 12.436c-2.144 8.002 2.604 16.227 10.606 18.371 1.301.349 2.606.515 3.892.515 6.623-.001 12.684-4.42 14.479-11.122l12.601-47.03c2.144-8.002-2.605-16.227-10.607-18.371l-47.027-12.602c-8.005-2.147-16.227 2.604-18.372 10.606-2.145 8.002 2.604 16.228 10.606 18.372l11.607 3.11C88.013 60.386 65.299 82.376 47.16 107.906 20.926 144.83 4.961 188.326.992 233.692c-4.606 52.654 6.888 104.592 33.242 150.201 25.751 44.565 63.736 79.975 109.848 102.398a14.933 14.933 0 0 0 6.549 1.514c5.561 0 10.905-3.106 13.5-8.443 3.623-7.451.521-16.427-6.929-20.05zM477.772 128.114c-25.751-44.565-63.736-79.975-109.848-102.398-7.449-3.622-16.427-.521-20.049 6.929-3.623 7.45-.521 16.427 6.929 20.049 40.708 19.797 74.247 51.066 96.992 90.429 17.437 30.176 27.502 63.499 29.733 97.88h-24.933c-8.284 0-15 6.716-15 15 0 8.284 6.716 15 15 15h24.892a232.401 232.401 0 0 1-.36 4.697c-3.533 40.388-17.812 79.048-41.294 111.802-16.12 22.485-36.261 41.795-59.221 56.998l3.42-12.766c2.144-8.002-2.604-16.227-10.606-18.371-8.003-2.146-16.227 2.605-18.371 10.607L342.455 471c-2.144 8.002 2.604 16.227 10.606 18.371l47.027 12.602c1.3.349 2.607.515 3.892.515 6.623 0 12.684-4.42 14.479-11.122 2.144-8.002-2.604-16.227-10.606-18.371l-11.322-3.034c26.264-17.278 49.283-39.311 67.684-64.98 26.614-37.123 42.796-80.924 46.798-126.667 4.608-52.653-6.887-104.592-33.241-150.2z" fill="#FFFFFF" opacity="1" data-original="#000000"></path><path d="M197.337 224.374c0-24.119-21.059-37.258-41.938-37.258-20.519 0-40.678 12.6-40.678 34.559 0 11.339 5.4 14.58 12.6 14.58 9.18 0 14.759-5.04 14.759-10.26 0-9.899 6.3-13.5 13.499-13.5 10.08 0 13.679 7.02 13.679 12.78 0 22.859-56.698 39.058-56.698 67.317v17.46c0 5.22 7.2 8.64 12.24 8.64h64.077c4.5 0 8.46-5.94 8.46-12.419 0-6.48-3.96-12.06-8.46-12.06h-47.158v-1.62c0-16.381 55.618-29.16 55.618-68.219zM292.011 265.053h-7.74v-12.6c0-5.94-7.02-8.46-14.04-8.46s-14.039 2.52-14.039 8.46v12.6h-15.48l31.858-63.897c.54-1.26.9-2.34.9-3.42 0-6.48-9.18-10.62-14.04-10.62-4.5 0-8.999 1.98-11.7 7.2l-41.578 81.537c-1.08 1.98-1.44 3.96-1.44 5.4 0 6.3 4.14 9.72 9.359 9.72h42.119v19.079c0 5.76 7.02 8.64 14.039 8.64 7.02 0 14.04-2.88 14.04-8.64v-19.079h7.74c4.32 0 8.64-6.48 8.64-12.96.002-6.48-2.878-12.96-8.638-12.96zM343.486 269.733c0-8.46 6.12-13.5 12.06-13.5 7.019 0 12.959 6.66 12.959 13.5v40.318c0 5.76 7.38 8.64 13.86 8.64 7.02 0 14.039-2.88 14.039-8.64v-40.318c0-20.699-14.219-37.798-30.599-37.798-11.16 0-19.079 6.66-22.319 13.679v-53.098c0-5.04-6.48-8.46-14.039-8.46-8.1 0-13.859 3.42-13.859 8.46v117.535c0 4.32 5.76 8.64 13.859 8.64 7.56 0 14.039-4.32 14.039-8.64v-40.318zM256.003 70.399c8.284 0 15-6.716 15-15V15.003c0-8.284-6.716-15-15-15-8.284 0-15 6.716-15 15v40.396c0 8.284 6.716 15 15 15zM256.003 441.608c-8.284 0-15 6.716-15 15v40.396c0 8.284 6.716 15 15 15 8.284 0 15-6.716 15-15v-40.396c0-8.284-6.715-15-15-15z" fill="#FFFFFF" opacity="1" data-original="#000000"></path></g></svg>