<svg width="278" height="31" viewBox="0 0 278 31" fill="none" xmlns="http://www.w3.org/2000/svg">
<path d="M23.5978 5.16379C23.5978 4.50317 23.3631 3.93077 22.8937 3.44864C22.4222 2.96651 21.8705 2.7121 21.2343 2.68338H13.3553V27.4403C13.3821 28.1564 13.6518 28.7636 14.1644 29.2581C14.675 29.7546 15.2906 30.0028 16.0091 30.0028H16.5485V30.4152H7.46309V30.0028H8.00249C8.721 30.0028 9.33658 29.7546 9.84716 29.2581C10.3577 28.7616 10.6274 28.1707 10.6563 27.4814V2.68338H2.7773C2.11437 2.7121 1.55438 2.96651 1.09733 3.44864C0.640281 3.93077 0.413815 4.50317 0.413815 5.16379V5.86545L0 5.90648V0.699463C0.413815 0.865645 1.13233 1.02977 2.1576 1.19595C3.18082 1.36213 4.11962 1.4442 4.97814 1.4442H18.9923C20.347 1.4442 21.4731 1.34162 22.3728 1.13441C23.2704 0.927192 23.8181 0.783575 24.0116 0.70151V5.90854L23.5978 5.86751V5.16585V5.16379Z" fill="#E9D4D4"/>
<path d="M27.6619 30.0028C28.4092 30.0028 29.0577 29.7833 29.6115 29.3422C30.1633 28.9011 30.4412 28.3779 30.4412 27.7706V8.26173C30.4412 7.6565 30.1654 7.13128 29.6115 6.69018C29.0577 6.24908 28.3948 6.02956 27.6207 6.02956H27.0813V5.61719H36.4549V6.02956H35.9155C35.1682 6.02956 34.5259 6.23678 33.9865 6.64915C33.4471 7.06153 33.1506 7.57238 33.095 8.17761V27.8096C33.1218 28.4169 33.4121 28.9319 33.9659 29.3586C34.5197 29.7853 35.1682 29.9987 35.9155 29.9987H36.4549L36.4961 30.4111H27.0813V29.9987H27.6619V30.0028Z" fill="#E9D4D4"/>
<path d="M48.2332 18.678C48.8694 18.8442 49.45 18.9262 49.975 18.9262C50.4999 18.9262 50.9282 18.9119 51.2596 18.8852C51.5911 18.8585 52.0605 18.7683 52.6699 18.6164C53.2772 18.4646 53.8311 18.2246 54.3293 17.8922C55.4904 17.1762 56.3469 16.0457 56.9007 14.5029C57.0942 13.951 57.191 13.2083 57.191 12.2708C57.191 10.5905 56.6104 9.26718 55.4493 8.30291C54.2881 7.33865 52.6843 6.85651 50.6379 6.85651H46.615V27.7708C46.6418 28.653 47.0433 29.2992 47.8174 29.7137C48.1756 29.9065 48.577 30.003 49.0197 30.003H49.6003V30.4153H41.0151V30.003H41.5957C42.2586 30.003 42.8186 29.7896 43.2757 29.3628C43.7327 28.9361 43.9736 28.4191 44.0024 27.8139V8.2229C43.9736 7.58895 43.7327 7.06578 43.2757 6.65135C42.8186 6.23898 42.2607 6.03176 41.5957 6.03176H41.0151V5.61938H50.7202C53.6231 5.61938 55.9248 6.25334 57.6254 7.52125C59.326 8.78915 60.1762 10.4961 60.1762 12.6462C60.1762 14.189 59.8159 15.539 59.0974 16.6961C57.6872 18.955 55.5028 20.0854 52.5443 20.0854C51.0785 20.0854 49.6414 19.7551 48.2312 19.0945V18.6821L48.2332 18.678Z" fill="#E9D4D4"/>
<path d="M64.0754 29.0529C63.9931 28.7226 63.9519 28.0476 63.9519 27.0279C63.9519 26.0083 64.131 24.9763 64.4913 23.9279H64.9895C64.9628 24.1762 64.9484 24.4244 64.9484 24.6727C64.9484 26.1601 65.4383 27.3808 66.4204 28.3307C67.4024 29.2806 68.7633 29.7566 70.505 29.7566C72.2467 29.7566 73.7538 29.336 74.777 28.4969C75.8002 27.6578 76.3108 26.5684 76.3108 25.2328C76.3108 23.8972 75.8126 22.7872 74.8182 21.905L66.5233 15.5409C65.1954 14.4104 64.5325 12.8963 64.5325 10.9945C64.5325 9.91944 64.8289 8.9285 65.4239 8.01963C66.0189 7.11076 66.8466 6.38654 67.913 5.84901C68.9774 5.31149 70.2291 5.04272 71.6662 5.04272C73.1032 5.04272 74.3755 5.16582 75.4811 5.41407H76.8502L76.9325 9.91944H76.4755C76.4755 8.76232 76.074 7.86781 75.2731 7.23386C74.4702 6.59991 73.3235 6.28396 71.8309 6.28396C70.3382 6.28396 69.1071 6.66351 68.1395 7.42056C67.1718 8.17966 66.688 9.15624 66.688 10.3544C66.688 11.5525 67.2274 12.5927 68.3062 13.4749L76.6834 19.9232C77.9557 20.9715 78.5919 22.4302 78.5919 24.3034C78.5919 26.1765 77.8796 27.7624 76.4569 29.057C75.0323 30.3516 73.2967 30.9999 71.2523 30.9999C69.8977 30.9999 68.5409 30.8337 67.1883 30.5034C65.8336 30.1731 64.796 29.691 64.0775 29.057L64.0754 29.0529Z" fill="#E9D4D4"/>
<path d="M123.467 1.89769C122.776 1.89769 122.181 2.13978 121.685 2.62191C121.186 3.10404 120.923 3.69081 120.896 4.3781V25.7047C120.896 27.303 120.993 28.8191 121.186 30.2511L121.269 30.9959H120.896L98.2927 6.94058V27.5225C98.3194 28.4867 98.7497 29.2028 99.5774 29.6726C99.9644 29.8942 100.378 30.0029 100.821 30.0029H101.609V30.4153H93.0654V30.0029H93.8539C94.5436 30.0029 95.1386 29.7629 95.6369 29.2787C96.1351 28.7965 96.3842 28.1975 96.3842 27.4814V6.03171C96.3842 4.35143 96.2874 2.84964 96.0939 1.52635L96.0115 0.865723H96.4254L119.029 24.921V4.42119C119 3.70517 118.738 3.10609 118.24 2.62396C117.742 2.14183 117.147 1.89974 116.457 1.89974H115.669V1.48736H124.213V1.89974H123.465L123.467 1.89769Z" fill="#E9D4D4"/>
<path d="M160.877 5.16379C160.877 4.50317 160.643 3.93077 160.173 3.44864C159.702 2.96651 159.15 2.7121 158.514 2.68338H150.635V27.4403C150.662 28.1564 150.931 28.7636 151.444 29.2581C151.955 29.7546 152.57 30.0028 153.289 30.0028H153.828V30.4152H144.745V30.0028H145.284C146.003 30.0028 146.618 29.7546 147.129 29.2581C147.639 28.7616 147.909 28.1707 147.938 27.4814V2.68338H140.059C139.396 2.7121 138.836 2.96651 138.379 3.44864C137.922 3.93077 137.696 4.50317 137.696 5.16379V5.86545L137.282 5.90648V0.699463C137.696 0.865645 138.414 1.02977 139.439 1.19595C140.463 1.36213 141.401 1.4442 142.26 1.4442H156.278C157.633 1.4442 158.759 1.34162 159.659 1.13441C160.556 0.927192 161.104 0.783575 161.297 0.70151V5.90854L160.884 5.86751V5.16585L160.877 5.16379Z" fill="#E9D4D4"/>
<path d="M168.633 6.67191C170.762 5.58455 173.105 5.03882 175.664 5.03882C178.223 5.03882 180.564 5.5825 182.694 6.67191C184.823 7.76132 186.516 9.29594 187.775 11.2799C189.033 13.2638 189.661 15.5103 189.661 18.0174C189.661 20.5245 189.031 22.771 187.775 24.7549C186.518 26.7389 184.823 28.2755 182.694 29.3629C180.566 30.4502 178.381 30.996 176.141 30.996C173.901 30.996 171.925 30.678 170.21 30.0461C168.495 29.4121 167.009 28.532 165.751 27.4015C164.493 26.2711 163.496 24.8944 162.763 23.2675C162.03 21.6426 161.664 19.7346 161.664 17.5435C161.664 15.3523 162.292 13.2658 163.552 11.2819C164.81 9.29799 166.502 7.76132 168.633 6.67396V6.67191ZM167.865 26.4701C169.953 28.6612 172.545 29.7568 175.641 29.7568C178.737 29.7568 181.338 28.6612 183.438 26.4701C185.538 24.279 186.59 21.4621 186.59 18.0174C186.59 14.5727 185.538 11.7558 183.438 9.5647C181.336 7.37357 178.737 6.278 175.641 6.278C172.545 6.278 169.953 7.37357 167.865 9.5647C165.777 11.7558 164.734 14.5727 164.734 18.0174C164.734 21.4621 165.777 24.279 167.865 26.4701Z" fill="#E9D4D4"/>
<path d="M218.859 6.03171H218.237C217.49 6.03171 216.924 6.321 216.537 6.89955C216.37 7.1478 216.273 7.43708 216.246 7.76739V21.6959C216.246 24.562 215.328 26.827 213.488 28.495C211.649 30.1629 209.125 30.9959 205.92 30.9959C202.714 30.9959 200.182 30.1691 198.329 28.5155C196.476 26.8619 195.549 24.603 195.549 21.7369V7.80842C195.549 7.31193 195.356 6.89339 194.969 6.54872C194.582 6.20405 194.112 6.03171 193.559 6.03171H192.937V5.61934H200.818V6.03171H200.196C199.642 6.03171 199.173 6.20405 198.786 6.54872C198.399 6.89339 198.205 7.31398 198.205 7.80842V21.2404C198.205 23.9137 198.889 26.0207 200.258 27.5635C201.627 29.1063 203.562 29.8778 206.064 29.8778C208.565 29.8778 210.57 29.1474 212.077 27.6866C213.584 26.2259 214.338 24.2296 214.338 21.6938V7.80637C214.309 7.2832 214.109 6.85647 213.737 6.5241C213.364 6.19379 212.901 6.02761 212.347 6.02761H211.725V5.61523H218.859V6.02761V6.03171Z" fill="#E9D4D4"/>
<path d="M225.517 27.4814C223.069 25.1672 221.846 22.0057 221.846 17.9968C221.846 13.9879 223.069 10.8264 225.517 8.51212C227.965 6.19788 231.302 5.04077 235.533 5.04077C237.248 5.04077 238.975 5.26234 240.717 5.70139C242.459 6.14249 243.966 6.74977 245.238 7.51913L246.15 13.3888H245.778C244.588 8.64957 241.16 6.27995 235.492 6.27995C232.2 6.27995 229.602 7.32833 227.695 9.42099C225.787 11.5157 224.833 14.3798 224.833 18.0173C224.833 20.3869 225.262 22.4468 226.12 24.1968C226.977 25.9468 228.22 27.303 229.853 28.2672C231.483 29.2315 233.377 29.7136 235.535 29.7136C237.693 29.7136 239.579 29.3895 241.197 28.7432C242.815 28.0969 244.155 27.028 245.22 25.5406C246.284 24.0532 246.885 22.2067 247.023 20.0033H247.396L246.939 25.6658C245.86 27.3194 244.297 28.6201 242.253 29.572C240.206 30.5219 237.966 30.9979 235.533 30.9979C231.302 30.9692 227.965 29.7998 225.517 27.4855V27.4814Z" fill="#E9D4D4"/>
<path d="M269.748 30.0029C270.384 30.0029 270.936 29.7895 271.407 29.3628C271.877 28.9361 272.126 28.4191 272.155 27.8138V18.8031H256.85V27.8138C256.876 28.4211 257.125 28.9361 257.597 29.3628C258.066 29.7895 258.62 30.0029 259.256 30.0029H259.755V30.4153H251.293V30.0029H251.791C252.454 30.0029 253.014 29.7834 253.471 29.3423C253.928 28.9012 254.169 28.378 254.196 27.7707V8.26183C254.169 7.6566 253.92 7.13138 253.448 6.69028C252.977 6.24918 252.425 6.02966 251.789 6.02966H251.291V5.61729H259.752V6.02966H259.254C258.618 6.02966 258.064 6.24303 257.595 6.66977C257.123 7.0965 256.876 7.61352 256.848 8.21875V17.5598H272.153V8.25978C272.153 7.65455 271.973 7.18473 271.613 6.85442C271.033 6.30253 270.411 6.02761 269.746 6.02761H269.248V5.61523H277.709V6.02761H277.211C276.575 6.02761 276.021 6.23482 275.552 6.6472C275.08 7.05958 274.833 7.57044 274.804 8.17566V27.8077C274.831 28.4149 275.012 28.8684 275.344 29.172C275.951 29.7239 276.573 29.9988 277.209 29.9988H277.707V30.4112H269.246V29.9988H269.744L269.748 30.0029Z" fill="#E9D4D4"/>
</svg>
