<svg xmlns="http://www.w3.org/2000/svg" version="1.1" xmlns:xlink="http://www.w3.org/1999/xlink" width="512" height="512" x="0" y="0" viewBox="0 0 64 64" style="enable-background:new 0 0 512 512" xml:space="preserve" class=""><g><path d="M17 34a2.002 2.002 0 0 0-2 2v21a2.002 2.002 0 0 0 2 2h4.101a5 5 0 0 0 9.798 0H46.1a5 5 0 0 0 9.798 0H59a3.003 3.003 0 0 0 3-3v-7.37a3.058 3.058 0 0 0-.54-1.723l-6.047-8.64A3.03 3.03 0 0 0 52.96 37H44v-1a2.002 2.002 0 0 0-2-2zm9 27a3 3 0 1 1 3-3 3.003 3.003 0 0 1-3 3zm16-4H30.899a5 5 0 0 0-9.798 0H17V36h25zm9 4a3 3 0 1 1 3-3 3.003 3.003 0 0 1-3 3zm4.584-19 2.8 4H49v-4zM44 39h8.96a1.018 1.018 0 0 1 .82.423l.404.577H48a1 1 0 0 0-1 1v6a1 1 0 0 0 1 1h11.784l.028.04a1.052 1.052 0 0 1 .188.59V56a1.001 1.001 0 0 1-1 1h-3.101a5 5 0 0 0-9.798 0H44zM2 40h11v2H2zM4 46h9v2H4zM6 52h7v2H6zM12 23a1.002 1.002 0 0 0 .794-.392C13.531 21.646 20 13.088 20 9A8 8 0 0 0 4 9c0 4.087 6.469 12.646 7.206 13.608A1.002 1.002 0 0 0 12 23zm0-20a6.007 6.007 0 0 1 6 6c0 2.545-3.801 8.302-6 11.326C9.801 17.302 6 11.546 6 9a6.007 6.007 0 0 1 6-6z" fill="#B16C51" opacity="1" data-original="#000000"></path><path d="M16.5 9a4.5 4.5 0 1 0-4.5 4.5A4.505 4.505 0 0 0 16.5 9zm-7 0a2.5 2.5 0 1 1 2.5 2.5A2.503 2.503 0 0 1 9.5 9zM52 25a1.002 1.002 0 0 0 .794-.392C53.531 23.646 60 15.088 60 11a8 8 0 0 0-16 0c0 4.087 6.469 12.646 7.206 13.608A1.002 1.002 0 0 0 52 25zm0-20a6.007 6.007 0 0 1 6 6c0 2.545-3.801 8.302-6 11.326-2.199-3.024-6-8.78-6-11.326a6.007 6.007 0 0 1 6-6z" fill="#B16C51" opacity="1" data-original="#000000"></path><path d="M56.5 11a4.5 4.5 0 1 0-4.5 4.5 4.505 4.505 0 0 0 4.5-4.5zm-7 0a2.5 2.5 0 1 1 2.5 2.5 2.503 2.503 0 0 1-2.5-2.5zM47.679 28a19.176 19.176 0 0 0 2.105-.123l-.224-1.987a17.33 17.33 0 0 1-1.885.11zM45.812 25.886a12.55 12.55 0 0 1-1.813-.37l-.548 1.923a14.596 14.596 0 0 0 2.102.43zM42.278 24.873a11.42 11.42 0 0 1-1.596-.914l-1.121 1.656a13.433 13.433 0 0 0 1.868 1.069zM18.951 21.717q-.949.276-1.951.618l.65 1.892q.954-.327 1.86-.59zM39.1 22.804a15.63 15.63 0 0 0-1.786-1.162l-.958 1.756a13.464 13.464 0 0 1 1.56 1.017zM23.304 22.735l-.365-1.966q-.96.178-2.006.425l.463 1.946c.662-.158 1.3-.291 1.908-.405zM27.165 22.223l-.16-1.994c-.62.05-1.303.12-2.04.218l.263 1.982c.7-.093 1.348-.158 1.937-.206zM34.685 22.674l.638-1.895q-.295-.1-.615-.191a13.751 13.751 0 0 0-1.47-.339l-.34 1.97a11.822 11.822 0 0 1 1.26.291q.275.078.527.164zM31.056 22.047l.047-1.999c-.602-.014-1.243 0-2.077.045l.108 1.997c.78-.043 1.374-.055 1.922-.043z" fill="#B16C51" opacity="1" data-original="#000000"></path></g></svg>