<svg width="278" height="102" viewBox="0 0 278 102" fill="none" xmlns="http://www.w3.org/2000/svg">
<path d="M136.79 50.1574H135.025V20.3185H129.203C126.669 20.3185 124.608 22.3722 124.608 24.8977H122.844C122.844 21.4038 125.697 18.5603 129.203 18.5603H135.025V13.5112H124.701C116.346 24.1838 110.746 39.3084 114.162 47.8883C118.378 58.4829 129.946 56.0968 141.854 51.1668V35.0697C138.622 39.3453 136.79 44.6118 136.79 50.1574ZM132.934 39.8438L132.818 40.289L132.386 40.447C132.322 40.4696 131.453 40.7814 130.212 40.7814C129.222 40.7814 127.997 40.5845 126.755 39.889C124.239 38.4795 122.524 35.5477 121.662 31.1696L121.433 30.0124L122.611 30.1253C127.068 30.55 130.167 31.9594 131.822 34.3147C133.665 36.9387 132.967 39.7269 132.936 39.8438H132.934Z" fill="#E9D4D4"/>
<path d="M123.659 32.0208C124.46 35.1906 125.779 37.314 127.593 38.3399C129.098 39.1933 130.57 39.0661 131.303 38.9184C131.377 38.1798 131.359 36.7068 130.358 35.2973C129.154 33.6006 126.902 32.5009 123.659 32.0188V32.0208Z" fill="#E9D4D4"/>
<path d="M136.79 40.6008C137.955 37.5501 139.672 34.7373 141.854 32.2979V20.3164H136.79V40.5988V40.6008Z" fill="#E9D4D4"/>
<path d="M164.204 14.2211C160.322 1.33277 150.927 -3.63421 137.061 2.8202C133.302 4.57023 129.537 7.77077 126.14 11.753H149.647C152.07 11.753 154.04 9.78957 154.04 7.37481H155.805C155.805 10.7579 153.042 13.5112 149.647 13.5112H136.792V18.5603H161.752V20.3185H143.623V30.5048C145.27 28.9805 147.119 27.6449 149.151 26.5472L149.991 28.0942C147.58 29.3949 145.441 31.0547 143.623 32.9832V50.4199C145.105 49.7798 146.59 49.1069 148.057 48.4217C161.923 41.9673 169.693 32.4395 164.207 14.2211H164.204Z" fill="#E9D4D4"/>
<path d="M141.856 56.9647H143.621V50.418C143.032 50.6724 142.443 50.9227 141.856 51.1648V56.9627V56.9647Z" fill="#E9D4D4"/>
<path d="M116.896 11.7529V13.5112H124.703C125.174 12.91 125.654 12.3233 126.14 11.7529H116.896Z" fill="#E9D4D4"/>
<path d="M23.5978 76.1638C23.5978 75.5032 23.3631 74.9308 22.8937 74.4486C22.4222 73.9665 21.8705 73.7121 21.2343 73.6834H13.3553V98.4403C13.3821 99.1564 13.6518 99.7636 14.1644 100.258C14.675 100.755 15.2906 101.003 16.0091 101.003H16.5485V101.415H7.46309V101.003H8.00249C8.721 101.003 9.33658 100.755 9.84716 100.258C10.3577 99.7616 10.6274 99.1707 10.6563 98.4814V73.6834H2.7773C2.11437 73.7121 1.55438 73.9665 1.09733 74.4486C0.640281 74.9308 0.413815 75.5032 0.413815 76.1638V76.8655L0 76.9065V71.6995C0.413815 71.8656 1.13233 72.0298 2.1576 72.196C3.18082 72.3621 4.11962 72.4442 4.97814 72.4442H18.9923C20.347 72.4442 21.4731 72.3416 22.3728 72.1344C23.2704 71.9272 23.8181 71.7836 24.0116 71.7015V76.9085L23.5978 76.8675V76.1658V76.1638Z" fill="#E9D4D4"/>
<path d="M27.6619 101.003C28.4092 101.003 29.0577 100.783 29.6115 100.342C30.1633 99.9011 30.4412 99.3779 30.4412 98.7706V79.2617C30.4412 78.6565 30.1654 78.1313 29.6115 77.6902C29.0577 77.2491 28.3948 77.0296 27.6207 77.0296H27.0813V76.6172H36.4549V77.0296H35.9155C35.1682 77.0296 34.5259 77.2368 33.9865 77.6492C33.4471 78.0615 33.1506 78.5724 33.095 79.1776V98.8096C33.1218 99.4169 33.4121 99.9319 33.9659 100.359C34.5197 100.785 35.1682 100.999 35.9155 100.999H36.4549L36.4961 101.411H27.0813V100.999H27.6619V101.003Z" fill="#E9D4D4"/>
<path d="M48.2332 89.678C48.8694 89.8442 49.45 89.9262 49.975 89.9262C50.4999 89.9262 50.9282 89.9119 51.2596 89.8852C51.5911 89.8585 52.0605 89.7683 52.6699 89.6164C53.2772 89.4646 53.8311 89.2246 54.3293 88.8922C55.4904 88.1762 56.3469 87.0457 56.9007 85.5029C57.0942 84.951 57.191 84.2083 57.191 83.2708C57.191 81.5905 56.6104 80.2672 55.4493 79.3029C54.2881 78.3387 52.6843 77.8565 50.6379 77.8565H46.615V98.7708C46.6418 99.653 47.0433 100.299 47.8174 100.714C48.1756 100.907 48.577 101.003 49.0197 101.003H49.6003V101.415H41.0151V101.003H41.5957C42.2586 101.003 42.8186 100.79 43.2757 100.363C43.7327 99.9361 43.9736 99.4191 44.0024 98.8139V79.2229C43.9736 78.5889 43.7327 78.0658 43.2757 77.6514C42.8186 77.239 42.2607 77.0318 41.5957 77.0318H41.0151V76.6194H50.7202C53.6231 76.6194 55.9248 77.2533 57.6254 78.5212C59.326 79.7891 60.1762 81.4961 60.1762 83.6462C60.1762 85.189 59.8159 86.539 59.0974 87.6961C57.6872 89.955 55.5028 91.0854 52.5443 91.0854C51.0785 91.0854 49.6414 90.7551 48.2312 90.0945V89.6821L48.2332 89.678Z" fill="#E9D4D4"/>
<path d="M64.0754 100.053C63.9931 99.7226 63.9519 99.0476 63.9519 98.0279C63.9519 97.0083 64.131 95.9763 64.4913 94.9279H64.9895C64.9628 95.1762 64.9484 95.4244 64.9484 95.6727C64.9484 97.1601 65.4383 98.3808 66.4204 99.3307C67.4024 100.281 68.7633 100.757 70.505 100.757C72.2467 100.757 73.7538 100.336 74.777 99.4969C75.8002 98.6578 76.3108 97.5684 76.3108 96.2328C76.3108 94.8972 75.8126 93.7872 74.8182 92.905L66.5233 86.5409C65.1954 85.4104 64.5325 83.8963 64.5325 81.9945C64.5325 80.9194 64.8289 79.9285 65.4239 79.0196C66.0189 78.1108 66.8466 77.3865 67.913 76.849C68.9774 76.3115 70.2291 76.0427 71.6662 76.0427C73.1032 76.0427 74.3755 76.1658 75.4811 76.4141H76.8502L76.9325 80.9194H76.4755C76.4755 79.7623 76.074 78.8678 75.2731 78.2339C74.4702 77.5999 73.3235 77.284 71.8309 77.284C70.3382 77.284 69.1071 77.6635 68.1395 78.4206C67.1718 79.1797 66.688 80.1562 66.688 81.3544C66.688 82.5525 67.2274 83.5927 68.3062 84.4749L76.6834 90.9232C77.9557 91.9715 78.5919 93.4302 78.5919 95.3034C78.5919 97.1765 77.8796 98.7624 76.4569 100.057C75.0323 101.352 73.2967 102 71.2523 102C69.8977 102 68.5409 101.834 67.1883 101.503C65.8336 101.173 64.796 100.691 64.0775 100.057L64.0754 100.053Z" fill="#E9D4D4"/>
<path d="M123.467 72.8977C122.776 72.8977 122.181 73.1398 121.685 73.6219C121.186 74.104 120.923 74.6908 120.896 75.3781V96.7047C120.896 98.303 120.993 99.8191 121.186 101.251L121.269 101.996H120.896L98.2927 77.9406V98.5225C98.3194 99.4867 98.7497 100.203 99.5774 100.673C99.9644 100.894 100.378 101.003 100.821 101.003H101.609V101.415H93.0654V101.003H93.8539C94.5436 101.003 95.1386 100.763 95.6369 100.279C96.1351 99.7965 96.3842 99.1975 96.3842 98.4814V77.0317C96.3842 75.3514 96.2874 73.8496 96.0939 72.5263L96.0115 71.8657H96.4254L119.029 95.921V75.4212C119 74.7052 118.738 74.1061 118.24 73.624C117.742 73.1418 117.147 72.8997 116.457 72.8997H115.669V72.4874H124.213V72.8997H123.465L123.467 72.8977Z" fill="#E9D4D4"/>
<path d="M160.877 76.1638C160.877 75.5032 160.643 74.9308 160.173 74.4486C159.702 73.9665 159.15 73.7121 158.514 73.6834H150.635V98.4403C150.662 99.1564 150.931 99.7636 151.444 100.258C151.955 100.755 152.57 101.003 153.289 101.003H153.828V101.415H144.745V101.003H145.284C146.003 101.003 146.618 100.755 147.129 100.258C147.639 99.7616 147.909 99.1707 147.938 98.4814V73.6834H140.059C139.396 73.7121 138.836 73.9665 138.379 74.4486C137.922 74.9308 137.696 75.5032 137.696 76.1638V76.8655L137.282 76.9065V71.6995C137.696 71.8656 138.414 72.0298 139.439 72.196C140.463 72.3621 141.401 72.4442 142.26 72.4442H156.278C157.633 72.4442 158.759 72.3416 159.659 72.1344C160.556 71.9272 161.104 71.7836 161.297 71.7015V76.9085L160.884 76.8675V76.1658L160.877 76.1638Z" fill="#E9D4D4"/>
<path d="M168.633 77.6719C170.762 76.5845 173.105 76.0388 175.664 76.0388C178.223 76.0388 180.564 76.5825 182.694 77.6719C184.823 78.7613 186.516 80.2959 187.775 82.2799C189.033 84.2638 189.661 86.5103 189.661 89.0174C189.661 91.5245 189.031 93.771 187.775 95.7549C186.518 97.7389 184.823 99.2755 182.694 100.363C180.566 101.45 178.381 101.996 176.141 101.996C173.901 101.996 171.925 101.678 170.21 101.046C168.495 100.412 167.009 99.532 165.751 98.4015C164.493 97.2711 163.496 95.8944 162.763 94.2675C162.03 92.6426 161.664 90.7346 161.664 88.5435C161.664 86.3523 162.292 84.2658 163.552 82.2819C164.81 80.298 166.502 78.7613 168.633 77.674V77.6719ZM167.865 97.4701C169.953 99.6612 172.545 100.757 175.641 100.757C178.737 100.757 181.338 99.6612 183.438 97.4701C185.538 95.279 186.59 92.4621 186.59 89.0174C186.59 85.5727 185.538 82.7558 183.438 80.5647C181.336 78.3736 178.737 77.278 175.641 77.278C172.545 77.278 169.953 78.3736 167.865 80.5647C165.777 82.7558 164.734 85.5727 164.734 89.0174C164.734 92.4621 165.777 95.279 167.865 97.4701Z" fill="#E9D4D4"/>
<path d="M218.859 77.0317H218.237C217.49 77.0317 216.924 77.321 216.537 77.8996C216.37 78.1478 216.273 78.4371 216.246 78.7674V92.6959C216.246 95.562 215.328 97.827 213.488 99.495C211.649 101.163 209.125 101.996 205.92 101.996C202.714 101.996 200.182 101.169 198.329 99.5155C196.476 97.8619 195.549 95.603 195.549 92.7369V78.8084C195.549 78.3119 195.356 77.8934 194.969 77.5487C194.582 77.204 194.112 77.0317 193.559 77.0317H192.937V76.6193H200.818V77.0317H200.196C199.642 77.0317 199.173 77.204 198.786 77.5487C198.399 77.8934 198.205 78.314 198.205 78.8084V92.2404C198.205 94.9137 198.889 97.0207 200.258 98.5635C201.627 100.106 203.562 100.878 206.064 100.878C208.565 100.878 210.57 100.147 212.077 98.6866C213.584 97.2259 214.338 95.2296 214.338 92.6938V78.8064C214.309 78.2832 214.109 77.8565 213.737 77.5241C213.364 77.1938 212.901 77.0276 212.347 77.0276H211.725V76.6152H218.859V77.0276V77.0317Z" fill="#E9D4D4"/>
<path d="M225.517 98.4814C223.069 96.1672 221.846 93.0057 221.846 88.9968C221.846 84.9879 223.069 81.8264 225.517 79.5121C227.965 77.1979 231.302 76.0408 235.533 76.0408C237.248 76.0408 238.975 76.2623 240.717 76.7014C242.459 77.1425 243.966 77.7498 245.238 78.5191L246.15 84.3888H245.778C244.588 79.6496 241.16 77.2799 235.492 77.2799C232.2 77.2799 229.602 78.3283 227.695 80.421C225.787 82.5157 224.833 85.3798 224.833 89.0173C224.833 91.3869 225.262 93.4468 226.12 95.1968C226.977 96.9468 228.22 98.303 229.853 99.2672C231.483 100.231 233.377 100.714 235.535 100.714C237.693 100.714 239.579 100.389 241.197 99.7432C242.815 99.0969 244.155 98.028 245.22 96.5406C246.284 95.0532 246.885 93.2067 247.023 91.0033H247.396L246.939 96.6658C245.86 98.3194 244.297 99.6201 242.253 100.572C240.206 101.522 237.966 101.998 235.533 101.998C231.302 101.969 227.965 100.8 225.517 98.4855V98.4814Z" fill="#E9D4D4"/>
<path d="M269.748 101.003C270.384 101.003 270.936 100.79 271.407 100.363C271.877 99.9361 272.126 99.4191 272.155 98.8138V89.8031H256.85V98.8138C256.876 99.4211 257.125 99.9361 257.597 100.363C258.066 100.79 258.62 101.003 259.256 101.003H259.755V101.415H251.293V101.003H251.791C252.454 101.003 253.014 100.783 253.471 100.342C253.928 99.9012 254.169 99.378 254.196 98.7707V79.2618C254.169 78.6566 253.92 78.1314 253.448 77.6903C252.977 77.2492 252.425 77.0297 251.789 77.0297H251.291V76.6173H259.752V77.0297H259.254C258.618 77.0297 258.064 77.243 257.595 77.6698C257.123 78.0965 256.876 78.6135 256.848 79.2187V88.5598H272.153V79.2598C272.153 78.6545 271.973 78.1847 271.613 77.8544C271.033 77.3025 270.411 77.0276 269.746 77.0276H269.248V76.6152H277.709V77.0276H277.211C276.575 77.0276 276.021 77.2348 275.552 77.6472C275.08 78.0596 274.833 78.5704 274.804 79.1757V98.8077C274.831 99.4149 275.012 99.8684 275.344 100.172C275.951 100.724 276.573 100.999 277.209 100.999H277.707V101.411H269.246V100.999H269.744L269.748 101.003Z" fill="#E9D4D4"/>
</svg>
