<svg xmlns="http://www.w3.org/2000/svg" version="1.1" xmlns:xlink="http://www.w3.org/1999/xlink" width="512" height="512" x="0" y="0" viewBox="0 0 32 32" style="enable-background:new 0 0 512 512" xml:space="preserve"><g><path d="M18 7.443V15a1 1 0 1 0 2 0V6a.436.436 0 0 0-.026-.165.992.992 0 0 0-.623-.772l-8-3a1.01 1.01 0 0 0-.702 0l-8 3a.992.992 0 0 0-.623.772A.436.436 0 0 0 2 6v11a1 1 0 0 0 .649.937l8 3a1.004 1.004 0 0 0 .92-.114c.27-.188.431-.495.431-.823V9.693zm-7-3.375L16.152 6 11 7.932 5.848 6zM4 16.307V7.443l6 2.25v8.864z" fill="#B16C51" opacity="1" data-original="#000000"></path><path d="M29.282 19.555a.996.996 0 0 0-.281-.57l-3.192-3.225a2.481 2.481 0 0 0-1.774-.74c-.671 0-1.301.262-1.774.74a2.474 2.474 0 0 0-.513.753 2.482 2.482 0 0 0-2.643 1.073l-1.87-1.888A2.354 2.354 0 0 0 15.552 15h-.001c-.666 0-1.322.277-1.801.76-.97.981-.999 2.548-.062 3.493l3.532 3.568-.517 1.568c-.118.357-.026.75.239 1.017l2.837 2.865c.114.115.254.2.408.25l4.511 1.432a1 1 0 0 0 1.01-.246l4-4c.22-.22.325-.53.284-.84zm-4.559 8.308-3.697-1.175-2.233-2.254.062-.188a1 1 0 0 0 .926-1.68l-.71-.716a.33.33 0 0 0-.022-.023l-3.941-3.98c-.166-.167-.137-.479.061-.679a.546.546 0 0 1 .38-.168c.074 0 .18.019.265.104l3.338 3.372c.036.037.074.069.114.1.049.059.102.117.157.174l1.064 1.074a1.001 1.001 0 0 0 1.421-1.408l-1.063-1.073a.53.53 0 0 1-.001-.742.495.495 0 0 1 .707-.001l1.774 1.792a1 1 0 0 0 1.42-1.408l-1.063-1.074a.53.53 0 0 1 0-.742.509.509 0 0 1 .707-.001l2.955 2.985.6 4.49z" fill="#B16C51" opacity="1" data-original="#000000"></path></g></svg>