<svg xmlns="http://www.w3.org/2000/svg" version="1.1" xmlns:xlink="http://www.w3.org/1999/xlink" width="512" height="512" x="0" y="0" viewBox="0 0 128 128" style="enable-background:new 0 0 512 512" xml:space="preserve" class=""><g><path d="M94.581 96.596c0-1.106.907-1.984 2.013-1.984s1.984.878 1.984 1.984v29.392c0 1.105-.879 2.013-1.984 2.013H11.416c-1.105 0-1.984-.907-1.984-2.013V75.451c0-1.106.878-1.984 1.984-1.984s2.013.878 2.013 1.984v48.552h81.152z" fill="#B16C51" opacity="1" data-original="#000000"></path><path d="M29.104 120.8c0 1.105-.907 2.013-2.013 2.013s-1.983-.907-1.983-2.013V95.263c0-3.798 1.53-7.256 4.053-9.75 2.495-2.494 5.953-4.054 9.751-4.054s7.256 1.56 9.75 4.054a13.775 13.775 0 0 1 4.054 9.75V120.8a2.02 2.02 0 0 1-2.012 2.013c-1.106 0-1.985-.907-1.985-2.013V95.263c0-2.692-1.105-5.131-2.891-6.915-1.786-1.786-4.224-2.892-6.917-2.892s-5.159 1.105-6.944 2.892c-1.758 1.784-2.863 4.223-2.863 6.915zM65.584 104.843h18.367V90.869H65.584zm20.38 3.997H63.6c-1.105 0-2.013-.879-2.013-1.984V88.857c0-1.105.907-1.984 2.013-1.984h22.364c1.105 0 2.013.879 2.013 1.984v17.998c0 1.106-.908 1.985-2.013 1.985z" fill="#B16C51" opacity="1" data-original="#000000"></path><path fill-rule="evenodd" d="M42.256 110.058a2.008 2.008 0 0 0 1.984-1.983c0-1.105-.907-2.013-1.984-2.013a2.021 2.021 0 0 0-2.013 2.013c0 1.076.907 1.983 2.013 1.983z" clip-rule="evenodd" fill="#B16C51" opacity="1" data-original="#000000"></path><path d="M44.58 61.959v-.114l1.333-24.744H38.23l-4.535 24.971c.028 1.587.624 3.005 1.616 4.054a5.237 5.237 0 0 0 3.826 1.644 5.221 5.221 0 0 0 3.798-1.644c1.021-1.077 1.616-2.551 1.616-4.167zm5.301-24.857-1.304 24.857c0 1.616.624 3.09 1.616 4.167a5.239 5.239 0 0 0 7.624 0c1.021-1.077 1.616-2.551 1.616-4.167h.028l-.681-12.471a2 2 0 0 1 1.9-2.098 1.998 1.998 0 0 1 2.097 1.899l.652 12.556v.114h.028c0 1.616.624 3.09 1.616 4.167a5.237 5.237 0 0 0 3.826 1.644c1.104 0 1.983.907 1.983 2.012s-.879 2.013-1.983 2.013c-2.636 0-5.018-1.134-6.718-2.919-.255-.283-.51-.566-.737-.879-.226.313-.481.596-.736.879-1.701 1.785-4.083 2.919-6.69 2.919-2.636 0-5.017-1.134-6.718-2.919-.255-.283-.51-.566-.737-.879-.227.313-.481.596-.736.879-1.701 1.785-4.082 2.919-6.69 2.919-2.636 0-5.017-1.134-6.718-2.919-.255-.283-.51-.566-.737-.879-.227.313-.482.596-.737.879-1.701 1.785-4.082 2.919-6.689 2.919-2.636 0-5.018-1.134-6.718-2.919-.255-.283-.51-.566-.737-.879-.227.313-.482.596-.737.879-1.7 1.785-4.081 2.919-6.689 2.919-2.239 0-4.28-.822-5.896-2.154A9.736 9.736 0 0 1 .19 64.228c-.169-.708-.226-1.389-.169-2.069.056-.68.227-1.36.51-2.041l8.277-20.181c.85-2.098 2.239-3.798 3.94-4.988a10.438 10.438 0 0 1 5.981-1.843h36.565a2.02 2.02 0 0 1 2.012 2.013c0 1.077-.907 1.984-2.012 1.984h-5.413zm-15.675 0h-8.107l-7.284 25.084c.057 1.531.652 2.92 1.616 3.94a5.243 5.243 0 0 0 7.625 0c1.021-1.077 1.616-2.551 1.616-4.167h.028c0-.114 0-.255.028-.369zm-12.245 0H18.73c-1.389 0-2.665.396-3.713 1.134-1.077.765-1.956 1.842-2.522 3.231L4.217 61.619a3.19 3.19 0 0 0-.227.851c0 .283 0 .567.085.878a5.77 5.77 0 0 0 1.956 3.231 5.182 5.182 0 0 0 3.345 1.19 5.223 5.223 0 0 0 3.798-1.644c1.021-1.077 1.616-2.551 1.616-4.167h.028c0-.199.028-.369.057-.567zM60.624 115.585c-1.105 0-2.013-.878-2.013-1.983s.908-2.013 2.013-2.013H88.94c1.104 0 1.983.907 1.983 2.013s-.879 1.983-1.983 1.983zM124.003 46.767 98.267 90.303a1.97 1.97 0 0 1-2.722.708 1.842 1.842 0 0 1-.736-.736l-25.71-43.508a.63.63 0 0 0-.085-.142c-1.247-2.268-2.211-4.733-2.891-7.284a31.816 31.816 0 0 1-.992-7.908c0-8.673 3.515-16.524 9.184-22.221C80.012 3.514 87.863 0 96.565 0c8.673 0 16.525 3.514 22.223 9.211S128 22.76 128 31.433c0 2.721-.368 5.357-1.021 7.908a31.603 31.603 0 0 1-2.948 7.369zm-27.438-34.41a19.004 19.004 0 0 1 13.492 5.583 19 19 0 0 1 5.584 13.492c0 5.272-2.126 10.034-5.584 13.492s-8.221 5.612-13.492 5.612a19.09 19.09 0 0 1-13.521-5.612c-3.43-3.458-5.583-8.22-5.583-13.492s2.153-10.034 5.583-13.492a19.07 19.07 0 0 1 13.521-5.583zm10.658 8.418c-2.721-2.749-6.491-4.422-10.657-4.422a15.042 15.042 0 0 0-10.687 4.422 15.039 15.039 0 0 0-4.422 10.657c0 4.167 1.701 7.937 4.422 10.686a15.134 15.134 0 0 0 10.687 4.393c4.166 0 7.937-1.672 10.657-4.393 2.722-2.749 4.423-6.519 4.423-10.686 0-4.166-1.702-7.935-4.423-10.657zM96.565 85.371l24.008-40.645a27.484 27.484 0 0 0 2.551-6.406c.567-2.183.879-4.479.879-6.888 0-7.567-3.09-14.427-8.049-19.387-4.962-4.96-11.821-8.049-19.389-8.049-7.597 0-14.456 3.089-19.416 8.049a27.327 27.327 0 0 0-8.022 19.387c0 2.409.283 4.705.85 6.888a28.85 28.85 0 0 0 2.523 6.349l.028.057z" fill="#B16C51" opacity="1" data-original="#000000"></path><path d="M96.565 22.278c2.495 0 4.79 1.049 6.462 2.693 1.645 1.644 2.665 3.939 2.665 6.462s-1.021 4.818-2.665 6.462c-1.672 1.672-3.938 2.693-6.462 2.693a9.155 9.155 0 0 1-6.492-2.693c-.028-.028-.057-.085-.113-.113a9.106 9.106 0 0 1-2.55-6.349 9.133 9.133 0 0 1 2.663-6.462c.057-.028.085-.085.142-.114a9.131 9.131 0 0 1 6.35-2.579zm3.628 5.498a5.19 5.19 0 0 0-3.628-1.474 5.185 5.185 0 0 0-3.571 1.417l-.085.085a5.093 5.093 0 0 0-1.504 3.628c0 1.389.539 2.636 1.419 3.572l.085.085c.936.907 2.211 1.502 3.656 1.502 1.418 0 2.693-.595 3.628-1.502a5.113 5.113 0 0 0 1.502-3.657 5.096 5.096 0 0 0-1.502-3.628z" fill="#B16C51" opacity="1" data-original="#000000"></path></g></svg>