<svg xmlns="http://www.w3.org/2000/svg" version="1.1" xmlns:xlink="http://www.w3.org/1999/xlink" width="512" height="512" x="0" y="0" viewBox="0 0 66 66" style="enable-background:new 0 0 512 512" xml:space="preserve" class=""><g><path d="M24.4 19.4v-8c0-.6-.4-1-1-1s-1 .4-1 1v8c-1.8.4-3.1 2.1-3.1 4 0 1.2.5 2.2 1.2 3l-3.6 6.1c-.3.5-.1 1.1.4 1.4s1.1.1 1.4-.4l3.6-6.1c.4.1.8.2 1.2.2 2.3 0 4.1-1.9 4.1-4.1-.1-2.1-1.5-3.7-3.2-4.1zm-1 6.1c-1.2 0-2.1-1-2.1-2.1 0-1.2 1-2.1 2.1-2.1 1.2 0 2.1 1 2.1 2.1s-1 2.1-2.1 2.1zM23.4 7.8c.6 0 1-.4 1-1v-2c0-.6-.4-1-1-1s-1 .4-1 1v2c0 .5.4 1 1 1zM23.4 38.9c-.6 0-1 .4-1 1v2c0 .6.4 1 1 1s1-.4 1-1v-2c0-.5-.5-1-1-1zM7.8 23.4c0-.6-.4-1-1-1h-2c-.6 0-1 .4-1 1s.4 1 1 1h2c.5 0 1-.5 1-1zM38.9 23.4c0 .6.4 1 1 1h2c.6 0 1-.4 1-1s-.4-1-1-1h-2c-.5 0-1 .4-1 1zM6.7 14.9l1.8 1c.5.3 1.1.1 1.4-.4s.1-1.1-.4-1.4l-1.8-1c-.5-.3-1.1-.1-1.4.4-.2.6-.1 1.2.4 1.4zM15.6 36.8c-.5-.3-1.1-.1-1.4.4l-1 1.8c-.3.5-.1 1.1.4 1.4s1.1.1 1.4-.4l1-1.8c.2-.5.1-1.1-.4-1.4zM31.1 9.9c.5.3 1.1.1 1.4-.4l1-1.8c.3-.5.1-1.1-.4-1.4s-1.1-.1-1.4.4l-1 1.8c-.2.5-.1 1.1.4 1.4zM15.4 10c.5-.3.6-.9.3-1.4l-1-1.8c-.3-.5-.9-.6-1.4-.3s-.6.9-.3 1.4l1 1.8c.3.4.9.6 1.4.3zM8.6 31l-1.8 1c-.5.3-.6.9-.3 1.4s.9.6 1.4.3l1.8-1c.5-.3.6-.9.3-1.4s-.9-.6-1.4-.3zM38.1 15.8l1.8-1c.5-.3.6-.9.3-1.4s-.9-.6-1.4-.3l-1.8 1c-.5.3-.6.9-.3 1.4.3.4.9.5 1.4.3zM40.9 2h17.3v24l-4.1-4.1c-.4-.4-1-.4-1.4 0s-.4 1 0 1.4l5.8 5.8c.2.2.4.3.7.3s.5-.1.7-.3l5.8-5.8c.4-.4.4-1 0-1.4s-1-.4-1.4 0L60.2 26V1c0-.6-.4-1-1-1H40.9c-.6 0-1 .4-1 1s.5 1 1 1z" fill="#B16C51" opacity="1" data-original="#000000" class=""></path><path d="M65.3 36.4c-.2-.1-18.6-10.2-18.8-10.2.1-1 .2-1.9.2-2.8C46.7 10.5 36.2 0 23.3 0 10.5 0 0 10.5 0 23.4s10.5 23.4 23.3 23.4c1 0 2.2-.1 3.4-.3v6.8c0 .3.2.7.5.8l18.5 11.7c.2.1.3.2.5.2s.4-.1.5-.1L65.4 56c.3-.2.5-.5.5-.9V37.3c0-.4-.2-.7-.6-.9zm-2.5.9-4.4 2.4-16.6-9.1 4.4-2.3zm-8.4 5.1L37.2 33l2.5-1.4 17.7 9.7v5L55 47.8v-4.5c0-.4-.3-.8-.6-.9zm-8.1 3.9L29.8 37l5.3-2.8 16.8 9.1zm-23-1.6C11.6 44.7 2 35.1 2 23.4 2 11.6 11.6 2 23.3 2c11.8 0 21.4 9.6 21.4 21.4 0 1-.1 2.4-.3 3.6 0 0-17 9.1-17.2 9.1-.3.2-.5.6-.5.9v7.5c-1.2.1-2.4.2-3.4.2zm5.4 8v-14L45.2 48v15.2zm18.5 10.6V48.1l5.7-3.1v4.5c0 .4.2.7.5.9s.7.2 1 0l4.5-2.5c.3-.2.5-.5.5-.9v-5.6l4.4-2.4v15.5z" fill="#B16C51" opacity="1" data-original="#000000" class=""></path><path d="m43 51.1-10.9-6.3c-.5-.3-1.1-.1-1.4.4s-.1 1.1.4 1.4L42 52.8c.5.3 1.1.1 1.4-.4.2-.4 0-1.1-.4-1.3zM42.9 55.2 32 48.8c-.5-.3-1.1-.1-1.4.4s-.1 1.1.4 1.4l10.9 6.3c.5.3 1.1.1 1.4-.4.2-.5 0-1.1-.4-1.3z" fill="#B16C51" opacity="1" data-original="#000000" class=""></path></g></svg>